<?xml version="1.0" encoding="utf-8"?>
<!-- Generator: Adobe Illustrator 26.5.0, SVG Export Plug-In . SVG Version: 6.00 Build 0)  -->
<svg version="1.1" id="Layer_1" xmlns="http://www.w3.org/2000/svg" xmlns:xlink="http://www.w3.org/1999/xlink" x="0px" y="0px"
	 viewBox="0 0 512 512" style="enable-background:new 0 0 512 512;" xml:space="preserve">
<style type="text/css">
	.st0{fill:#646464;}
	.st1{fill:url(#path1948_00000173126831943917798570000013552129634606373506_);}
	.st2{fill:url(#path1950_00000054972824066820870450000004108007231483356311_);}
	.st3{clip-path:url(#SVGID_00000042705003845306051950000015532523067821610138_);}
	
		.st4{clip-path:url(#SVGID_00000117650500048504073620000017427976222553109902_);fill:url(#path1894_00000153676482304176016910000000096781870139039679_);}
	.st5{opacity:0.4438;fill:url(#path1894_00000090990047880094219680000009116000635571722421_);enable-background:new    ;}
</style>
<g id="g2303">
	<path id="path46" class="st0" d="M192.95,245c0-15.63-4.43-23.8-13.42-24.21c-3.6-0.14-7.06,0.42-10.38,1.66
		c-2.77,0.97-4.57,1.94-5.53,2.91v37.49c5.67,3.6,10.79,5.26,15.22,4.98C188.25,267.28,192.95,259.67,192.95,245z M204.02,245.69
		c0,8.02-1.94,14.67-5.67,19.92c-4.15,5.95-9.96,8.99-17.43,9.13c-5.53,0.14-11.35-1.52-17.29-5.26v34.04l-9.55-3.46v-75.54
		c1.52-1.94,3.6-3.6,6.09-4.98c5.67-3.32,12.73-4.98,20.89-5.12l0.14,0.14c7.47-0.14,13.28,2.91,17.29,9.13
		C202.08,229.37,204.02,236.7,204.02,245.69z"/>
	<path id="path48" class="st0" d="M262.68,268.11c0,10.65-1.11,18.12-3.18,22.28c-2.21,4.15-6.23,7.47-12.31,9.82
		c-4.84,1.94-10.24,3.04-15.91,3.18l-1.52-6.09c5.81-0.83,9.82-1.52,12.18-2.35c4.7-1.52,7.89-4.01,9.55-7.19
		c1.38-2.63,2.08-7.61,2.08-15.08v-2.49c-6.5,3.04-13.42,4.43-20.61,4.43c-4.7,0-8.85-1.52-12.45-4.43
		c-4.01-3.18-6.09-7.33-6.09-12.31v-39.98l9.55-3.32v40.12c0,4.29,1.38,7.61,4.15,9.96c2.77,2.35,6.36,3.46,10.79,3.32
		s9.13-1.8,14.11-5.12v-46.9h9.55v52.16H262.68z"/>
	<path id="path50" class="st0" d="M300.18,274.19c-1.11,0.14-2.21,0.14-3.18,0.14c-5.4,0-9.68-1.25-12.73-3.87
		c-3.04-2.63-4.57-6.23-4.57-10.79V221.9h-6.64v-6.09h6.64v-16.05l9.55-3.46v19.51h10.79v6.09h-10.79v37.63
		c0,3.6,0.97,6.23,2.91,7.61c1.66,1.25,4.29,1.94,7.89,2.08v4.98H300.18z"/>
	<path id="path52" class="st0" d="M358.43,273.36h-9.55v-37.08c0-3.74-0.83-7.06-2.63-9.68c-2.08-3.04-4.84-4.57-8.44-4.57
		c-4.43,0-9.96,2.35-16.46,6.92v44.41h-9.55v-88.69l9.55-3.04v40.4c6.09-4.43,12.87-6.64,20.06-6.64c5.12,0,9.27,1.66,12.31,5.12
		c3.18,3.46,4.7,7.61,4.7,12.73V273.36L358.43,273.36z"/>
	<path id="path54" class="st0" d="M409.48,243.48c0-6.09-1.11-11.07-3.46-14.94c-2.77-4.84-6.92-7.33-12.59-7.61
		c-10.51,0.55-15.77,8.16-15.77,22.55c0,6.64,1.11,12.18,3.32,16.6c2.77,5.67,7.06,8.44,12.73,8.3
		C404.08,268.52,409.48,260.08,409.48,243.48z M419.99,243.62c0,8.58-2.21,15.77-6.64,21.45c-4.84,6.36-11.48,9.55-19.92,9.55
		c-8.44,0-14.94-3.18-19.78-9.55c-4.29-5.67-6.5-12.87-6.5-21.45c0-8.02,2.35-14.8,6.92-20.34c4.84-5.81,11.35-8.85,19.37-8.85
		s14.53,2.91,19.51,8.85C417.64,228.67,419.99,235.45,419.99,243.62z"/>
	<path id="path56" class="st0" d="M475.06,273.36h-9.55v-39.15c0-4.29-1.25-7.61-3.87-10.1c-2.63-2.35-6.09-3.6-10.38-3.46
		c-4.57,0.14-8.85,1.52-13.01,4.43v48.29h-9.55v-49.39c5.53-4.01,10.65-6.64,15.22-7.89c4.43-1.11,8.3-1.66,11.62-1.66
		c2.21,0,4.43,0.28,6.5,0.69c3.74,0.83,6.78,2.49,9.27,4.84c2.63,2.63,4.01,5.81,4.01,9.41v44H475.06z"/>
	
		<linearGradient id="path1948_00000005258741075483417300000007886676129388391578_" gradientUnits="userSpaceOnUse" x1="6.4411" y1="334.5905" x2="123.9851" y2="435.7214" gradientTransform="matrix(0.5625 0 0 0.568 -6.6629 -1.3817)">
		<stop  offset="0" style="stop-color:#5A9FD4"/>
		<stop  offset="1" style="stop-color:#306998"/>
	</linearGradient>
	<path id="path1948" style="fill:url(#path1948_00000005258741075483417300000007886676129388391578_);" d="M59.16,185.23
		c-4.98,0-9.68,0.42-13.84,1.25c-12.18,2.21-14.39,6.64-14.39,15.08v11.07h28.92v3.74H30.94H20.15c-8.44,0-15.77,4.98-18.12,14.67
		c-2.63,11.07-2.77,17.85,0,29.33c2.08,8.58,6.92,14.67,15.36,14.67h9.96V261.6c0-9.55,8.3-17.99,18.12-17.99h28.92
		c8.02,0,14.39-6.64,14.39-14.67v-27.53c0-7.89-6.64-13.7-14.39-15.08C69.26,185.51,64.15,185.09,59.16,185.23z M43.53,194.09
		c3.04,0,5.4,2.49,5.4,5.53c0,3.04-2.49,5.53-5.4,5.53c-3.04,0-5.4-2.49-5.4-5.53C38.13,196.44,40.49,194.09,43.53,194.09z"/>
	
		<linearGradient id="path1950_00000087389452254550723050000015061727763219296166_" gradientUnits="userSpaceOnUse" x1="169.4647" y1="496.8541" x2="127.4921" y2="437.4702" gradientTransform="matrix(0.5625 0 0 0.568 -6.6629 -1.3817)">
		<stop  offset="0" style="stop-color:#FFD43B"/>
		<stop  offset="1" style="stop-color:#FFE873"/>
	</linearGradient>
	<path id="path1950" style="fill:url(#path1950_00000087389452254550723050000015061727763219296166_);" d="M92.23,216.08v12.87
		c0,9.96-8.44,18.26-18.12,18.26H45.33c-7.89,0-14.39,6.78-14.39,14.67v27.53c0,7.89,6.78,12.45,14.39,14.67
		c9.13,2.63,17.99,3.18,28.92,0c7.33-2.08,14.39-6.36,14.39-14.67v-11.07H59.72v-3.74h28.92h14.39c8.44,0,11.48-5.81,14.39-14.67
		c3.04-8.99,2.91-17.71,0-29.33c-2.08-8.3-6.09-14.67-14.39-14.67H92.23V216.08z M76.04,285.82c3.04,0,5.4,2.49,5.4,5.53
		s-2.49,5.53-5.4,5.53c-3.04,0-5.4-2.49-5.4-5.53C70.65,288.17,73,285.82,76.04,285.82z"/>
	<path id="text3004" class="st0" d="M493.74,207.23h1.66v-10.51h4.01v-1.25h-9.68v1.25h4.01V207.23 M500.93,207.23h1.38v-9.68
		l3.18,9.68h1.66l3.32-9.55v9.55H512v-11.76h-2.08l-3.6,10.1l-3.04-10.1h-2.35L500.93,207.23"/>
	<g id="XMLID_14_">
		<g>
			<defs>
				<polygon id="SVGID_1_" points="39.52,236.7 40.9,236.7 39.52,238.08 				"/>
			</defs>
			<defs>
				<polygon id="SVGID_00000161633266166329354420000003436541982415476359_" points="36.75,233.93 35.37,233.93 36.75,232.55 				
					"/>
			</defs>
			<clipPath id="SVGID_00000160187303340999473220000010191045277553903802_">
				<use xlink:href="#SVGID_1_"  style="overflow:visible;"/>
			</clipPath>
			
				<clipPath id="SVGID_00000095305435021822048430000003443246884622028939_" style="clip-path:url(#SVGID_00000160187303340999473220000010191045277553903802_);">
				<use xlink:href="#SVGID_00000161633266166329354420000003436541982415476359_"  style="overflow:visible;"/>
			</clipPath>
			
				<radialGradient id="path1894_00000063605207504303749210000005704326298470899388_" cx="-687.4958" cy="129.692" r="31.3064" gradientTransform="matrix(0 -0.2399 1.0547 0 -76.6533 157.9145)" gradientUnits="userSpaceOnUse">
				<stop  offset="0" style="stop-color:#7F7F7F"/>
				<stop  offset="1" style="stop-color:#000000"/>
			</radialGradient>
			
				<path id="path1894_1_" style="clip-path:url(#SVGID_00000095305435021822048430000003443246884622028939_);fill:url(#path1894_00000063605207504303749210000005704326298470899388_);" d="
				M98.87,322.89c0,4.15-17.29,7.47-38.74,7.47s-38.74-3.32-38.74-7.47c0-4.15,17.29-7.47,38.74-7.47S98.87,318.74,98.87,322.89z"/>
		</g>
	</g>
	
		<radialGradient id="path1894_00000180365380921120334760000015156080073463948462_" cx="-687.4958" cy="129.692" r="31.3064" gradientTransform="matrix(0 -0.2399 1.0547 0 -76.6533 157.9145)" gradientUnits="userSpaceOnUse">
		<stop  offset="0" style="stop-color:#B8B8B8"/>
		<stop  offset="1" style="stop-color:#7F7F7F"/>
	</radialGradient>
	
		<path id="path1894" style="opacity:0.4438;fill:url(#path1894_00000180365380921120334760000015156080073463948462_);enable-background:new    ;" d="
		M98.87,322.89c0,4.15-17.29,7.47-38.74,7.47s-38.74-3.32-38.74-7.47c0-4.15,17.29-7.47,38.74-7.47S98.87,318.74,98.87,322.89z"/>
</g>
</svg>
