<?xml version="1.0" encoding="utf-8"?>
<!-- Generator: Adobe Illustrator 26.5.0, SVG Export Plug-In . SVG Version: 6.00 Build 0)  -->
<svg version="1.1" id="Layer_1" xmlns="http://www.w3.org/2000/svg" xmlns:xlink="http://www.w3.org/1999/xlink" x="0px" y="0px"
	 viewBox="0 0 512 512" style="enable-background:new 0 0 512 512;" xml:space="preserve">
<style type="text/css">
	.st0{fill:#00D8FF;}
</style>
<g id="XMLID_1_">
	<path id="XMLID_2_" class="st0" d="M420.92,175.9c-5.33-1.82-10.8-3.51-16.41-5.19c0.98-3.79,1.82-7.57,2.52-11.22
		c12.48-60.6,4.35-109.41-23.57-125.4c-26.65-15.43-70.42,0.7-114.46,39c-4.21,3.65-8.56,7.57-12.76,11.64
		c-2.81-2.67-5.61-5.33-8.42-7.86c-46.29-41.1-92.58-58.35-120.36-42.22c-26.65,15.43-34.65,61.3-23.43,118.67
		c1.12,5.61,2.38,11.22,3.79,16.97c-6.59,1.82-12.91,3.79-18.94,5.89C34.75,195.12,0.1,224.71,0.1,255.43
		c0,31.7,37.17,63.54,93.56,82.9c4.49,1.54,9.12,2.95,13.89,4.35c-1.54,6.17-2.95,12.34-4.07,18.24
		c-10.66,56.39-2.38,101.14,24.27,116.57c27.49,15.85,73.64-0.42,118.53-39.7c3.51-3.09,7.15-6.45,10.66-9.82
		c4.63,4.49,9.26,8.7,13.89,12.62c43.48,37.45,86.55,52.6,113.06,37.17c27.49-15.85,36.33-63.96,24.83-122.6
		c-0.84-4.49-1.96-8.98-3.09-13.75c3.23-0.98,6.45-1.96,9.54-2.95c58.63-19.5,96.93-50.92,96.93-83.04
		C511.96,224.71,476.19,194.98,420.92,175.9z M408.16,317.86c-2.81,0.98-5.61,1.82-8.56,2.67c-6.45-20.48-15.29-42.36-25.95-64.81
		c10.24-22.02,18.66-43.48,24.97-63.96c5.19,1.54,10.38,3.09,15.29,4.77c47.41,16.27,76.31,40.4,76.31,59.06
		C490.08,275.35,458.94,301.02,408.16,317.86z M387.12,359.52c5.19,25.95,5.89,49.24,2.52,67.61c-3.09,16.41-9.12,27.35-16.83,31.84
		c-16.13,9.4-50.64-2.81-87.81-34.79c-4.21-3.65-8.56-7.57-12.91-11.78c14.45-15.71,28.9-34.09,42.92-54.43
		c24.69-2.24,48.11-5.75,69.3-10.66C385.43,351.38,386.41,355.45,387.12,359.52z M174.46,457.29c-15.71,5.61-28.34,5.75-35.91,1.4
		c-16.13-9.26-22.86-45.31-13.75-93.56c0.98-5.47,2.24-11.22,3.79-16.97c21.04,4.63,44.19,8,69.01,9.96
		c14.17,19.92,29.04,38.29,43.91,54.29c-3.23,3.09-6.45,6.17-9.82,8.98C211.91,438.77,191.99,451.12,174.46,457.29z M100.68,317.72
		c-24.97-8.56-45.59-19.64-59.76-31.7c-12.76-10.94-19.08-21.6-19.08-30.44c0-18.66,27.77-42.36,74.2-58.63
		c5.61-1.96,11.5-3.79,17.67-5.61c6.45,20.9,14.87,42.64,24.97,64.67c-10.24,22.3-18.8,44.47-25.25,65.65
		C108.95,320.38,104.74,319.12,100.68,317.72z M125.36,149.25c-9.68-49.24-3.23-86.27,12.91-95.53c17.11-9.96,54.99,4.21,94.97,39.7
		c2.52,2.24,5.05,4.63,7.72,7.15c-14.87,15.99-29.6,34.23-43.63,54.01c-24.13,2.24-47.13,5.75-68.31,10.66
		C127.61,159.63,126.49,154.3,125.36,149.25z M346.3,203.67c-5.05-8.7-10.24-17.25-15.57-25.67c16.27,2.1,31.98,4.77,46.71,8.14
		c-4.35,14.17-9.96,28.9-16.41,44.05C356.4,221.63,351.49,212.65,346.3,203.67z M256.24,116c10.1,10.94,20.2,23.15,30.16,36.33
		c-9.96-0.42-20.2-0.7-30.44-0.7c-10.1,0-20.2,0.28-30.16,0.7C235.76,139.29,246,127.08,256.24,116z M165.62,203.95
		c-5.05,8.84-9.82,17.67-14.45,26.51c-6.31-15.15-11.78-30.02-16.27-44.33c14.59-3.23,30.16-5.89,46.43-8
		C175.86,186.42,170.67,195.12,165.62,203.95L165.62,203.95z M181.75,334.55c-16.83-1.82-32.54-4.35-47.13-7.57
		c4.49-14.59,10.1-29.74,16.55-45.17c4.63,8.84,9.4,17.67,14.45,26.51l0,0C170.81,317.29,176.14,325.99,181.75,334.55z
		 M256.8,396.69c-10.38-11.22-20.76-23.57-30.86-36.89c9.82,0.42,19.78,0.56,30.02,0.56c10.38,0,20.76-0.28,30.86-0.7
		C276.86,373.26,266.76,385.61,256.8,396.69z M361.17,280.96c6.87,15.57,12.62,30.72,17.25,45.03c-14.87,3.37-30.86,6.17-47.69,8.14
		c5.33-8.42,10.52-17.11,15.71-26.09C351.63,299.06,356.54,290.08,361.17,280.96z M327.36,297.24c-8,13.89-16.27,27.07-24.55,39.7
		c-15.15,1.12-30.86,1.68-46.85,1.68s-31.42-0.56-46.29-1.4c-8.7-12.62-17.11-25.95-24.97-39.7l0,0
		c-8-13.75-15.29-27.49-21.88-41.24c6.59-13.75,13.89-27.63,21.74-41.24l0,0c7.86-13.75,16.27-26.93,24.83-39.56
		c15.29-1.12,30.86-1.68,46.57-1.68l0,0c15.85,0,31.42,0.56,46.71,1.82c8.42,12.48,16.69,25.67,24.69,39.42
		c8,13.89,15.43,27.63,22.02,41.1C342.79,269.46,335.35,283.35,327.36,297.24z M372.53,53.02c17.11,9.82,23.85,49.8,13.05,102.12
		c-0.7,3.37-1.4,6.73-2.24,10.24c-21.18-4.91-44.33-8.56-68.45-10.8c-14.03-20.06-28.62-38.29-43.34-54.01
		c3.93-3.79,7.86-7.43,11.78-10.8C321.05,56.67,356.4,43.76,372.53,53.02z M255.96,209.84c25.25,0,45.73,20.48,45.73,45.73
		s-20.48,45.73-45.73,45.73s-45.73-20.48-45.73-45.73S230.71,209.84,255.96,209.84z"/>
</g>
</svg>
